<svg xmlns="http://www.w3.org/2000/svg" viewBox="0 0 116.1 34"><path fill="#c53131" d="M106.8 0h-22l-.3.2c-1.2.8-2.3 1.7-3.2 2.7H5.7l-.3.4c-.7 1.2-3 4.5-4.9 5.4l-.5.2V25l.5.2c1.8.9 4.1 4.2 4.9 5.4l.3.4h75.6c1 1 2.1 1.9 3.2 2.7l.3.2h21.9l.3-.2c5.6-3.8 9-10 9-16.8s-3.4-13-9-16.8l-.2-.1zm7.3 17c0 5.8-2.9 11.2-7.6 14.5H96.2c-4.7-2.1-11.1-3.2-14.3-3.8-2.3-3-3.7-6.8-3.7-10.7 0-3.9 1.3-7.7 3.7-10.7 3.1-.6 9.5-1.7 14.3-3.8h10.3c4.8 3.3 7.6 8.7 7.6 14.5zM69.8 4.6c.8.7 2.5 1.8 5.7 2.1-.9 1.5-3 5.5-3 10.3s2 8.8 3 10.3c-3.2.3-4.9 1.4-5.7 2.1H14.4c-3.1-1.1-11.1-4.5-12.9-9.3v-6.2c1.9-4.8 9.9-8.1 12.9-9.3h55.4zm6.8 2.2h2a20.4 20.4 0 0 0-2.8 10.3c0 3.7 1 7.2 2.9 10.3-.7 0-1.3-.1-2 0-.6-1-3.1-5.2-3.1-10.2s2.4-9.4 3-10.4zm9.3 24.7c-1.1-.8-2.1-1.7-3-2.6 2.4.5 5.1 1.3 8.3 2.6h-5.3zm-6.7-3.2l.8 1.1h-8.5c1.4-.7 3.8-1.5 7.7-1.1zM6.3 29.4c-.7-1.1-2.8-4.1-4.9-5.4v-1.9c2.3 3.4 7.1 5.9 10.4 7.3H6.3zM1.4 10c2.1-1.3 4.2-4.3 4.9-5.4h5.5C8.5 6 3.8 8.5 1.4 11.9V10zM80 4.6l-.8 1.1c-3.9.4-6.3-.4-7.7-1.1H80zm2.9.5c.9-1 1.9-1.9 3-2.6h5.3c-3.2 1.3-6 2.1-8.3 2.6z"/></svg>