<svg xmlns="http://www.w3.org/2000/svg" id="Layer_1" viewBox="0 0 15.9 18.6">
  <style>
    .st2{fill:#fff}
  </style>
  <path fill="#242528" d="M15.3 8.1h-.1v-.2C15.2 3.5 11.9 0 8 0S.8 3.5.8 7.8V8H.6c-.6.2-.8 1.1-.5 2.1.3 1 1 1.6 1.6 1.5l.7 1.1c.5 2.9 2.8 5.8 5.6 5.8s5.1-3 5.6-5.8l.7-1.1c.6.1 1.2-.5 1.5-1.5.3-.9.1-1.9-.5-2z"/>
  <path class="st2" d="M10.4 13.9c0 1.3-1 0-2.3 0s-2.3 1.3-2.3 0 1-2.3 2.3-2.3 2.3 1 2.3 2.3z"/>
  <path class="st2" transform="rotate(135 5 8)" d="M4.6 5.8h.7v4.5h-.7z"/>
  <path class="st2" transform="rotate(-135 5 8)" d="M4.6 5.8h.7v4.5h-.7z"/>
  <path class="st2" transform="rotate(135 11 8)" d="M10.6 5.8h.7v4.5h-.7z"/>
  <path class="st2" transform="rotate(-135 11 8)" d="M10.6 5.8h.7v4.5h-.7z"/>
</svg>